# xmcd
#
# Track frame offsets: 
#        150
#        16999
#        33670
#        50449
#        69230
#        84246
#        102979
#        118219
#        134145
#        150029
#        170798
#        187356
#        203537
#        220357
#        236625
#        255129
#        274673
#        296011
#        311938
#        334363
#
# Disc length: 4717 seconds
#
# Revision: 1
# Processed by: cddbd v1.5.2PL0 Copyright (c) Steve Scherf et al.
# Submitted via: ExactAudioCopy v1.0b3
#
DISCID=2d126b14
DTITLE=松田聖子 - Seiko Story ~80's Hits Collection~
DYEAR=2011
DGENRE=JPop
TTITLE0=裸足の季節
TTITLE1=青い珊瑚礁
TTITLE2=SQUALL
TTITLE3=風は秋色
TTITLE4=Eighteen
TTITLE5=Only My Love
TTITLE6=チェリーブラッサム
TTITLE7=夏の扉
TTITLE8=白いパラソル
TTITLE9=風立ちぬ
TTITLE10=赤いスイートピー
TTITLE11=制服
TTITLE12=渚のバルコニー
TTITLE13=小麦色のマーメイド
TTITLE14=野ばらのエチュード
TTITLE15=未来の花嫁
TTITLE16=真冬の恋人たち
TTITLE17=秘密の花園
TTITLE18=マイアミ午前5時
TTITLE19=セイシェルの夕陽
EXTD=
EXTT0=
EXTT1=
EXTT2=
EXTT3=
EXTT4=
EXTT5=
EXTT6=
EXTT7=
EXTT8=
EXTT9=
EXTT10=
EXTT11=
EXTT12=
EXTT13=
EXTT14=
EXTT15=
EXTT16=
EXTT17=
EXTT18=
EXTT19=
PLAYORDER=
